# xmcd
#
# Track frame offsets:
#	150
#	14930
#	28450
#	49431
#	66002
#	79750
#	97191
#	114770
#	133270
#	156534
#	171791
#	188842
#	206823
#	222743
#	237955
#	256053
#	274103
#
# Disc length: 3876 seconds
#
# Revision: 0
# Processed by: cddbd v1.5.2PL0 Copyright (c) Steve Scherf et al.
# Submitted via: audiograbber 1.83.01
#
DISCID=0d0f2211
DTITLE=Chartbuster - 2010 Country Hits Disk 3
DYEAR=2010
DGENRE=Country
TTITLE0=Jason Aldean - Crazy Town
TTITLE1=Toby Keith - American Ride
TTITLE2=Carrie Underwood - Temporary Home
TTITLE3=Darius Rucker - History In The Making
TTITLE4=Easton Corbin - A Little More Country Than That
TTITLE5=Colt Ford ft. Jamey Johnson - Cold Beer
TTITLE6=Martina McBride - Wrong Baby, Wrong Baby, Wrong
TTITLE7=Keith Urban - Til Summer Comes Around
TTITLE8=Rascal Flatts - Why
TTITLE9=Josh Thompson - Beer On The Table
TTITLE10=Reba McEntire - Consider Me Gone
TTITLE11=Billy Currington - That's How Country Boys Roll
TTITLE12=Kenny Chesney (w/ David Matthews) - I'm Alive
TTITLE13=George Strait - I Gotta Get To You
TTITLE14=Miranda Lambert - The House That Built Me
TTITLE15=Tim McGraw - Still
TTITLE16=Chris Young - The Man I Want To Be
EXTD=
EXTT0=
EXTT1=
EXTT2=
EXTT3=
EXTT4=
EXTT5=
EXTT6=
EXTT7=
EXTT8=
EXTT9=
EXTT10=
EXTT11=
EXTT12=
EXTT13=
EXTT14=
EXTT15=
EXTT16=
PLAYORDER=
